<?xml version="1.0" standalone="no"?>
<!DOCTYPE svg PUBLIC "-//W3C//DTD SVG 20010904//EN"
 "http://www.w3.org/TR/2001/REC-SVG-20010904/DTD/svg10.dtd">
<svg version="1.0" xmlns="http://www.w3.org/2000/svg"
 width="1280.000000pt" height="695.000000pt" viewBox="0 0 1280.000000 695.000000"
 preserveAspectRatio="xMidYMid meet">
<metadata>
Created by potrace 1.15, written by Peter Selinger 2001-2017
</metadata>
<g transform="translate(0.000000,695.000000) scale(0.100000,-0.100000)"
fill="#000000" stroke="none">
<path d="M6740 6890 c-96 -32 -258 -86 -360 -119 -196 -63 -1242 -403 -1545
-501 -99 -32 -445 -145 -770 -250 -771 -250 -932 -303 -1040 -338 l-90 -30
133 -1 132 -1 0 -865 0 -865 -782 -2 c-739 -3 -783 -4 -782 -20 1 -10 2 -261
3 -558 l1 -540 780 0 780 0 0 -188 0 -189 -122 -17 c-463 -65 -862 -214 -1050
-394 l-58 -55 0 -129 0 -128 -165 0 -165 0 0 -625 0 -625 2275 0 2275 0 0 -55
0 -55 -2982 -2 -2983 -3 0 -165 0 -165 6288 -3 6287 -2 0 170 0 170 -235 0
-235 0 0 655 0 655 -120 0 -119 0 -3 -87 -3 -88 -104 0 -104 0 -37 90 c-118
288 -267 498 -392 555 -56 26 -140 26 -196 0 -128 -58 -281 -274 -396 -562
l-34 -83 -111 -3 c-84 -2 -113 1 -116 10 -3 7 -4 267 -3 578 l3 565 27 -46
c54 -92 235 -325 245 -315 4 4 -35 411 -42 432 -2 6 -33 19 -68 30 -36 10 -63
22 -61 26 3 4 32 8 65 8 l61 0 -7 123 c-4 67 -9 124 -12 127 -2 3 -39 17 -81
31 l-77 26 78 7 c76 8 77 8 77 36 l0 28 -95 7 c-53 4 -93 10 -90 14 3 3 43 17
88 31 l82 26 3 161 2 162 -70 42 c-39 23 -69 43 -68 45 2 1 30 -4 63 -12 78
-18 77 -18 73 14 -3 26 -6 27 -77 36 -82 9 -79 16 15 36 l61 12 7 67 c12 130
14 125 -56 157 l-63 28 65 6 65 5 16 106 c21 136 23 140 63 166 l34 22 22 -24
c14 -15 41 -27 74 -33 50 -9 50 -9 24 -20 -16 -6 -28 -14 -28 -17 0 -4 105
-165 125 -193 1 -1 24 5 51 13 27 8 51 15 53 15 3 0 -14 -14 -37 -31 -45 -33
-47 -36 -33 -57 7 -11 17 -9 49 12 23 14 44 26 47 26 4 0 -11 -21 -31 -46
l-38 -46 47 -94 c26 -52 52 -94 58 -94 6 0 38 7 71 16 33 8 62 13 65 11 2 -3
-25 -22 -61 -42 -60 -36 -63 -40 -53 -62 13 -29 12 -29 82 2 32 14 59 24 62
22 2 -3 -23 -24 -56 -48 -41 -30 -59 -49 -55 -59 3 -8 24 -67 47 -130 22 -63
41 -116 42 -118 1 -1 34 4 74 13 103 22 105 19 19 -25 -56 -29 -76 -44 -72
-55 4 -8 7 -15 8 -15 0 0 35 9 76 20 41 10 76 18 77 16 2 -2 -28 -23 -67 -46
-60 -36 -71 -47 -65 -64 3 -12 27 -104 53 -205 l47 -184 32 69 c86 187 125
353 126 534 0 162 -20 248 -87 385 -115 232 -374 449 -668 560 -38 14 -45 20
-38 34 5 9 11 24 14 34 3 9 14 17 24 17 14 0 21 9 26 32 l6 32 17 -24 c9 -14
18 -27 19 -28 1 -2 41 -1 87 3 l85 7 9 42 10 41 12 -30 c6 -16 14 -36 16 -42
2 -7 14 -13 26 -13 18 0 21 5 17 36 l-4 35 30 -35 c30 -34 33 -35 128 -42 l97
-6 36 56 c19 31 37 56 38 56 1 0 0 -27 -1 -60 -3 -50 -1 -60 12 -60 13 0 16
12 16 57 l0 58 38 -65 37 -65 70 -11 c76 -13 89 -8 102 44 9 37 23 25 23 -22
l0 -44 80 -20 c44 -11 80 -18 80 -15 0 23 -92 173 -135 221 -107 118 -216 165
-380 164 -168 -1 -357 -70 -567 -207 -55 -36 -103 -64 -105 -61 -3 3 10 32 29
64 l35 59 -19 26 -19 26 33 -5 c27 -5 38 -1 57 20 l25 26 -22 30 c-29 39 -28
43 8 25 42 -22 50 -20 97 27 l43 42 -26 44 c-27 46 -23 46 33 5 46 -35 57 -9
12 29 l-34 29 40 -6 c97 -13 103 -11 213 61 2 1 -4 19 -12 39 -22 51 -21 51
23 16 l40 -32 55 28 c31 15 56 30 56 33 0 11 -137 59 -203 71 -121 22 -233
-16 -318 -109 -88 -97 -151 -257 -183 -467 -14 -95 -16 -95 -40 0 -52 207
-136 386 -222 476 l-34 35 2 330 3 329 185 5 184 5 -114 37 c-112 35 -499 160
-1335 428 -223 72 -587 189 -810 260 -223 72 -586 188 -807 259 -222 71 -530
170 -686 220 -155 50 -286 91 -290 90 -4 0 -86 -27 -182 -59z m3937 -2289 c68
-67 133 -155 152 -204 18 -47 -6 -47 -126 -3 l-113 41 0 118 c0 64 4 117 8
117 5 0 40 -31 79 -69z m101 -276 c-8 -8 -178 -32 -183 -26 -3 2 -5 10 -5 18
0 10 23 13 97 13 53 0 94 -2 91 -5z m-158 -119 c0 -2 -8 -10 -17 -17 -16 -13
-17 -12 -4 4 13 16 21 21 21 13z m-8712 -723 l-3 -388 -30 0 -30 0 -3 375 c-1
206 0 381 3 387 2 7 18 13 35 13 l30 0 -2 -387z m72 -4 l0 -390 -22 3 -23 3
-3 388 -2 387 25 0 25 0 0 -391z m70 1 c0 -383 0 -390 -20 -390 -20 0 -20 7
-20 390 0 383 0 390 20 390 20 0 20 -7 20 -390z m78 3 l-3 -388 -22 -3 -23 -3
0 390 0 391 25 0 25 0 -2 -387z m72 -3 l0 -390 -25 0 -25 0 0 390 0 390 25 0
25 0 0 -390z m70 0 c0 -383 0 -390 -20 -390 -20 0 -20 7 -20 390 0 383 0 390
20 390 20 0 20 -7 20 -390z m70 0 c0 -383 0 -390 -20 -390 -20 0 -20 7 -20
390 0 383 0 390 20 390 20 0 20 -7 20 -390z m80 0 l0 -390 -25 0 -25 0 0 390
0 390 25 0 25 0 0 -390z m70 -1 c0 -387 0 -390 -20 -387 -12 2 -21 6 -20 11 0
4 0 178 0 387 0 373 0 380 20 380 20 0 20 -7 20 -391z m70 1 c0 -383 0 -390
-20 -390 -20 0 -20 7 -20 390 0 383 0 390 20 390 20 0 20 -7 20 -390z m78 3
l-3 -388 -22 -3 -23 -3 0 390 0 391 25 0 25 0 -2 -387z m72 -4 l0 -390 -22 3
-23 3 -3 388 -2 387 25 0 25 0 0 -391z m70 1 c0 -383 0 -390 -20 -390 -20 0
-20 7 -20 390 0 383 0 390 20 390 20 0 20 -7 20 -390z m78 3 l-3 -388 -22 -3
-23 -3 0 390 0 391 25 0 25 0 -2 -387z m72 -4 l0 -390 -22 3 -23 3 -3 388 -2
387 25 0 25 0 0 -391z m70 1 c0 -383 0 -390 -20 -390 -20 0 -20 7 -20 390 0
383 0 390 20 390 20 0 20 -7 20 -390z m75 0 l0 -385 -22 -3 -23 -3 0 391 0
391 23 -3 22 -3 0 -385z m75 0 l0 -390 -25 0 -25 0 0 390 0 390 25 0 25 0 0
-390z m50 0 c0 -253 -4 -390 -10 -390 -6 0 -10 137 -10 390 0 253 4 390 10
390 6 0 10 -137 10 -390z"/>
<path d="M1190 6909 c-52 -11 -112 -82 -138 -163 -32 -96 -44 -193 -46 -353
-1 -138 -7 -171 -20 -117 -11 42 -89 204 -128 264 -93 145 -200 221 -311 222
-34 0 -82 -8 -106 -16 -45 -16 -171 -101 -171 -115 0 -4 24 -13 53 -20 47 -11
53 -10 64 6 7 10 19 27 28 38 15 19 15 17 10 -25 l-6 -45 59 -19 c57 -18 63
-18 101 -2 57 22 63 20 43 -13 -25 -44 -6 -50 28 -10 l29 34 -9 -35 c-15 -52
-14 -53 41 -83 l51 -28 26 23 c23 21 25 22 20 3 -3 -11 -9 -27 -12 -36 -11
-26 40 -54 71 -40 23 11 24 10 18 -22 -5 -28 -1 -37 39 -77 25 -24 46 -47 46
-51 0 -4 -35 8 -77 27 -106 45 -236 81 -342 95 -161 21 -294 -16 -392 -107
-58 -55 -91 -106 -118 -187 -21 -61 -44 -168 -37 -174 2 -3 30 10 61 28 l57
32 -6 46 -6 46 29 -35 28 -35 54 25 c64 30 66 31 74 90 9 67 21 81 29 34 8
-44 22 -72 31 -62 4 4 0 30 -8 59 l-16 52 44 -43 44 -43 83 25 c76 23 84 28
92 57 11 38 26 41 26 5 0 -19 5 -25 18 -22 12 2 18 14 20 41 3 34 22 55 22 24
0 -7 6 -21 13 -31 11 -15 19 -16 85 -5 58 10 72 15 72 30 0 26 18 33 25 9 5
-17 15 -20 63 -21 l57 -1 -90 -18 c-285 -58 -539 -193 -671 -357 -62 -79 -130
-221 -149 -315 -26 -133 -16 -316 25 -468 l12 -45 42 120 c23 66 57 153 76
193 l33 73 -49 50 -49 51 52 -26 c63 -32 69 -32 84 -5 10 20 6 27 -42 70 -30
27 -50 48 -46 49 4 0 30 -11 57 -25 27 -14 53 -25 58 -25 4 0 18 17 30 38 12
20 31 51 42 68 l20 31 -28 39 c-42 59 -48 69 -31 59 8 -5 29 -20 47 -33 26
-20 35 -22 45 -13 9 10 2 22 -36 57 -56 50 -51 54 25 20 l54 -24 53 64 53 65
-16 46 c-22 63 -21 64 18 18 30 -35 35 -38 42 -22 5 13 -3 28 -27 54 l-34 35
40 -17 c22 -10 47 -19 55 -22 23 -6 146 96 142 120 -2 16 2 18 24 13 17 -5 37
0 62 15 45 27 40 22 -64 -69 -136 -119 -248 -272 -308 -423 -42 -109 -58 -193
-57 -319 0 -154 31 -273 110 -435 67 -136 184 -310 189 -279 1 10 -1 100 -5
198 l-8 179 -57 21 c-31 12 -59 24 -62 27 -3 3 24 5 62 5 53 -1 67 2 67 14 0
10 -22 20 -69 32 -38 10 -71 20 -74 23 -3 3 29 5 71 5 l77 0 0 43 c0 24 3 84
6 133 l7 89 -57 24 c-69 28 -79 41 -23 30 72 -14 87 -12 87 14 0 19 -10 26
-52 41 -78 28 -80 36 -6 29 l67 -6 5 34 c3 19 10 61 16 93 14 83 15 80 -30
111 -22 15 -39 30 -37 32 2 2 22 -3 45 -11 36 -13 41 -13 46 1 9 22 9 23 -36
43 l-43 19 46 0 47 1 26 85 c15 47 29 91 32 99 3 9 -5 17 -22 23 l-28 9 40 16
c25 10 45 27 52 43 7 15 14 26 16 24 1 -2 -1 -96 -5 -209 -55 -1478 -85 -3363
-69 -4340 9 -558 23 -1000 36 -1098 l5 -42 181 0 181 0 -7 293 c-9 363 -33
1251 -41 1452 -3 83 -10 290 -15 460 -16 478 -51 1366 -65 1630 -21 399 -27
519 -40 740 -27 436 -50 716 -81 959 -8 65 -13 120 -11 123 3 2 24 -44 47
-102 23 -58 47 -105 54 -105 6 1 31 5 56 9 l45 9 -46 -41 -46 -42 26 -85 27
-85 66 0 c37 0 64 -2 62 -5 -3 -2 -28 -14 -57 -27 -43 -18 -52 -26 -49 -44 1
-13 4 -24 6 -26 2 -2 23 8 47 22 61 35 69 31 28 -12 -63 -68 -62 -56 -25 -213
18 -79 37 -145 42 -146 5 -2 45 -6 89 -9 l80 -7 -77 -30 c-68 -26 -78 -33 -78
-54 0 -27 14 -29 88 -15 23 5 42 7 42 5 0 -2 -25 -20 -55 -40 -30 -20 -55 -43
-55 -50 0 -7 6 -43 14 -81 8 -37 17 -84 20 -104 l6 -36 48 8 c77 13 79 11 18
-27 -47 -30 -57 -40 -53 -58 5 -18 48 -293 60 -376 8 -59 126 256 169 451 20
90 23 131 22 314 0 195 -2 217 -27 309 -34 127 -117 299 -194 401 -81 108
-213 232 -325 306 -127 83 -128 89 -10 64 83 -17 173 -47 261 -87 l65 -28 31
30 c40 39 47 38 29 -5 -7 -19 -14 -38 -14 -42 0 -5 33 -26 73 -47 l73 -39 39
26 c47 32 54 28 26 -11 -40 -56 -25 -67 28 -22 19 16 36 28 38 27 1 -2 -5 -22
-14 -45 -9 -23 -14 -44 -12 -46 2 -2 29 -19 59 -39 l54 -37 39 38 38 37 -20
-48 c-12 -27 -21 -50 -21 -52 0 -3 91 -71 117 -88 7 -4 21 -4 30 1 10 5 31 12
47 16 l28 7 -22 -36 c-17 -27 -20 -39 -11 -48 8 -8 17 -5 33 9 58 51 60 51 38
-1 l-21 -49 48 -40 c26 -23 72 -63 102 -91 l54 -50 -7 58 c-19 153 -91 322
-185 434 -133 160 -335 264 -586 304 -99 15 -356 15 -449 0 -106 -18 -89 -6
31 22 144 35 290 55 449 63 l131 7 19 51 19 51 3 -52 c3 -51 4 -53 32 -53 26
0 29 3 35 51 8 56 19 51 30 -12 l6 -36 152 -10 152 -10 44 41 43 41 -7 -35
c-4 -19 -8 -39 -9 -45 0 -5 9 -11 22 -13 16 -2 22 2 22 15 1 10 7 32 14 48
l13 30 14 -50 15 -50 92 -16 c51 -9 92 -13 92 -9 0 3 -27 47 -60 97 -107 163
-236 251 -410 280 -86 15 -103 15 -204 0 -61 -9 -147 -28 -191 -42 -166 -55
-376 -169 -550 -300 -42 -32 -79 -55 -82 -52 -23 23 68 263 130 346 l26 34
-29 43 c-17 23 -30 45 -30 48 0 2 21 -7 46 -21 l46 -26 64 64 64 63 -32 33
c-37 38 -33 41 17 12 33 -20 37 -20 61 -4 14 9 24 21 21 28 -5 15 -125 75
-162 80 -16 2 -46 1 -65 -4z"/>
</g>
</svg>
